<svg width="20" height="20" viewBox="0 0 20 20" fill="none" xmlns="http://www.w3.org/2000/svg">
<g clip-path="url(#clip0_219_7647)">
<circle cx="10" cy="10" r="10" fill="#141718"/>
<path d="M6.92809 14V12.6705L10.0346 9.79403C10.2988 9.53835 10.5204 9.30824 10.6994 9.10369C10.8812 8.89915 11.019 8.69886 11.1127 8.50284C11.2065 8.30398 11.2534 8.08949 11.2534 7.85938C11.2534 7.60369 11.1951 7.38352 11.0787 7.19886C10.9622 7.01136 10.8031 6.8679 10.6014 6.76847C10.3997 6.66619 10.171 6.61506 9.91531 6.61506C9.64826 6.61506 9.41531 6.66903 9.21644 6.77699C9.01758 6.88494 8.86417 7.03977 8.75621 7.24148C8.64826 7.44318 8.59428 7.68324 8.59428 7.96165H6.84286C6.84286 7.39062 6.97212 6.89489 7.23065 6.47443C7.48917 6.05398 7.85138 5.72869 8.31729 5.49858C8.7832 5.26847 9.32013 5.15341 9.92809 5.15341C10.5531 5.15341 11.0971 5.2642 11.5602 5.4858C12.0261 5.70455 12.3883 6.00852 12.6468 6.39773C12.9054 6.78693 13.0346 7.23295 13.0346 7.7358C13.0346 8.06534 12.9693 8.39062 12.8386 8.71165C12.7108 9.03267 12.4821 9.3892 12.1525 9.78125C11.823 10.1705 11.3585 10.6378 10.7591 11.1832L9.48491 12.4318V12.4915H13.1497V14H6.92809Z" fill="white"/>
</g>
<defs>
<clipPath id="clip0_219_7647">
<rect width="20" height="20" fill="white"/>
</clipPath>
</defs>
</svg>
