<!DOCTYPE svg PUBLIC "-//W3C//DTD SVG 1.1//EN" "http://www.w3.org/Graphics/SVG/1.1/DTD/svg11.dtd">
<!-- Uploaded to: SVG Repo, www.svgrepo.com, Transformed by: SVG Repo Mixer Tools -->
<svg width="800px" height="800px" viewBox="-1.5 -1.5 18.00 18.00" fill="none" xmlns="http://www.w3.org/2000/svg" stroke="#ffffff" stroke-width="0.63">
<g id="SVGRepo_bgCarrier" stroke-width="0" transform="translate(5.325,5.325), scale(0.29)">
<rect x="-1.5" y="-1.5" width="18.00" height="18.00" rx="9" fill="#000000" strokewidth="0"/>
</g>
<g id="SVGRepo_tracerCarrier" stroke-linecap="round" stroke-linejoin="round" stroke="#030202" stroke-width="1.47"> <path d="M9.875 7.5C9.875 8.81168 8.81168 9.875 7.5 9.875C6.18832 9.875 5.125 8.81168 5.125 7.5C5.125 6.18832 6.18832 5.125 7.5 5.125C8.81168 5.125 9.875 6.18832 9.875 7.5Z" fill="#000000"/> </g>
<g id="SVGRepo_iconCarrier"> <path d="M9.875 7.5C9.875 8.81168 8.81168 9.875 7.5 9.875C6.18832 9.875 5.125 8.81168 5.125 7.5C5.125 6.18832 6.18832 5.125 7.5 5.125C8.81168 5.125 9.875 6.18832 9.875 7.5Z" fill="#000000"/> </g>
</svg>